<svg xmlns="http://www.w3.org/2000/svg" xmlns:xlink="http://www.w3.org/1999/xlink" width="10" height="9" viewBox="0 0 10 9">
    <defs>
        <path id="a" d="M7.535 11.246l-1.298.682a.984.984 0 0 1-1.428-1.037l.247-1.446a1 1 0 0 0-.287-.884L3.72 7.537a.984.984 0 0 1 .546-1.678l1.45-.212a1 1 0 0 0 .753-.546l.65-1.315a.984.984 0 0 1 1.764 0l.65 1.315a1 1 0 0 0 .752.546l1.451.212a.984.984 0 0 1 .546 1.678L11.23 8.56a1 1 0 0 0-.287.884l.247 1.446a.984.984 0 0 1-1.428 1.037l-1.298-.682a1 1 0 0 0-.93 0z"/>
    </defs>
    <use fill="#D9D9D9" fill-rule="evenodd" transform="translate(-3 -3)" xlink:href="#a"/>
</svg>
