<svg xmlns="http://www.w3.org/2000/svg" xmlns:xlink="http://www.w3.org/1999/xlink" width="16" height="16" viewBox="0 0 16 16">
    <defs>
        <path id="a" d="M8 2a6 6 0 1 0 0 12A6 6 0 0 0 8 2zm.912 9.772a.2.2 0 0 1-.2.2H7.355a.2.2 0 0 1-.2-.2V10.46c0-.11.09-.2.2-.2h1.357c.111 0 .2.09.2.2v1.312zm1.257-4.493c-.127.18-.356.4-.701.668l-.321.25a.772.772 0 0 0-.281.38c-.02.064-.046.199-.05.477a.2.2 0 0 1-.2.197H7.387a.2.2 0 0 1-.2-.207c.02-.54.071-.908.16-1.127.092-.23.31-.478.667-.757L8.35 6.9a.958.958 0 0 0 .22-.224.718.718 0 0 0 .143-.432.857.857 0 0 0-.165-.512c-.094-.133-.286-.2-.572-.2-.279 0-.467.084-.575.256a1.141 1.141 0 0 0-.189.62.2.2 0 0 1-.2.2H5.7a.2.2 0 0 1-.2-.21c.039-.926.374-1.596.995-1.992.388-.25.867-.376 1.423-.376.723 0 1.335.178 1.82.528.506.364.762.907.762 1.613 0 .434-.112.808-.331 1.109z"/>
    </defs>
    <g fill="none" fill-rule="evenodd">
        <mask id="b" fill="#fff">
            <use xlink:href="#a"/>
        </mask>
        <use fill="#7166FC" fill-rule="nonzero" xlink:href="#a"/>
    </g>
</svg>
